# xmcd
#
# Track frame offsets: 
#        150
#        30198
#        55188
#        85756
#        120334
#        143891
#        169393
#        203305
#        215657
#
# Disc length: 3368 seconds
#
# Revision: 3
# Processed by: cddbd v1.5.1PL2 Copyright (c) Steve Scherf et al.
# Submitted via: ExactAudioCopy v0.95b2
#
DISCID=6f0d2609
DTITLE=Jiri Stivin and Co Jazz Quartet - so what... (tak co...)
DYEAR=2004
DGENRE=Jazz
TTITLE0=Dunaj (folk, arr. Jiri Stivin)
TTITLE1=Summertime (George Gershwin)
TTITLE2=Bazalicka (folk, arr. Jiri Stivin)
TTITLE3=So What (Miles Davis)
TTITLE4=Balada pro W.L. (Jiri Stivin)
TTITLE5=Work Song (Nat Adderly)
TTITLE6=St. Thomas (Sonny Rollins)
TTITLE7=Modra Ruze (Jiri Stivin)
TTITLE8=Memphis Underground (Herbie Mann)
EXTD=YEAR: 2004
EXTT0=
EXTT1=
EXTT2=
EXTT3=
EXTT4=
EXTT5=
EXTT6=
EXTT7=
EXTT8=
PLAYORDER=
